{
  "accessors": [
    {
      "bufferView": 2,
      "componentType": 5126,
      "count": 2048,
      "max": [
        64.95203399658203,
        79.78216552734375,
        62.89154815673828
      ],
      "min": [
        -64.95203399658203,
        -144.9401092529297,
        -62.89162826538086
      ],
      "type": "VEC3"
    },
    {
      "bufferView": 2,
      "byteOffset": 24576,
      "componentType": 5126,
      "count": 2048,
      "max": [
        0.9999077916145325,
        1.0,
        1.0
      ],
      "min": [
        -0.9999077916145325,
        -1.0,
        -1.0
      ],
      "type": "VEC3"
    },
    {
      "bufferView": 1,
      "componentType": 5126,
      "count": 2048,
      "max": [
        0.9924039244651794,
        1.0
      ],
      "min": [
        -0.027777671813964844,
        0.0
      ],
      "type": "VEC2"
    },
    {
      "bufferView": 0,
      "componentType": 5125,
      "count": 9816,
      "type": "SCALAR"
    },
    {
      "bufferView": 2,
      "byteOffset": 49152,
      "componentType": 5126,
      "count": 394,
      "max": [
        47.032981872558594,
        40.98897933959961,
        52.03628158569336
      ],
      "min": [
        -47.032981872558594,
        18.591991424560547,
        37.22319030761719
      ],
      "type": "VEC3"
    },
    {
      "bufferView": 2,
      "byteOffset": 53880,
      "componentType": 5126,
      "count": 394,
      "max": [
        0.9885905981063843,
        0.9936180710792542,
        0.9840114712715149
      ],
      "min": [
        -0.9885905981063843,
        -0.9193843007087708,
        -0.40829384326934814
      ],
      "type": "VEC3"
    },
    {
      "bufferView": 1,
      "byteOffset": 16384,
      "componentType": 5126,
      "count": 394,
      "max": [
        1.000000238418579,
        1.0
      ],
      "min": [
        0.0,
        0.5
      ],
      "type": "VEC2"
    },
    {
      "bufferView": 0,
      "byteOffset": 39264,
      "componentType": 5125,
      "count": 1728,
      "type": "SCALAR"
    },
    {
      "bufferView": 2,
      "byteOffset": 58608,
      "componentType": 5126,
      "count": 2232,
      "max": [
        115.00233459472656,
        247.32603454589844,
        112.3172836303711
      ],
      "min": [
        -112.02398681640625,
        0.1390247344970703,
        -120.43941497802734
      ],
      "type": "VEC3"
    },
    {
      "bufferView": 2,
      "byteOffset": 85392,
      "componentType": 5126,
      "count": 2232,
      "max": [
        1.0,
        0.9998476505279541,
        1.0
      ],
      "min": [
        -1.0,
        -0.9996337890625,
        -1.0
      ],
      "type": "VEC3"
    },
    {
      "bufferView": 1,
      "byteOffset": 19536,
      "componentType": 5126,
      "count": 2232,
      "max": [
        1.0277777910232544,
        1.0
      ],
      "min": [
        -0.22916997969150543,
        -0.4166964888572693
      ],
      "type": "VEC2"
    },
    {
      "bufferView": 0,
      "byteOffset": 46176,
      "componentType": 5125,
      "count": 10854,
      "type": "SCALAR"
    },
    {
      "bufferView": 2,
      "byteOffset": 112176,
      "componentType": 5126,
      "count": 1216,
      "max": [
        81.76317596435547,
        198.62054443359375,
        103.74919128417969
      ],
      "min": [
        -84.481689453125,
        63.78783416748047,
        -61.54171371459961
      ],
      "type": "VEC3"
    },
    {
      "bufferView": 2,
      "byteOffset": 126768,
      "componentType": 5126,
      "count": 1216,
      "max": [
        0.9999883770942688,
        1.0,
        1.0
      ],
      "min": [
        -0.9999883770942688,
        -0.9999145865440369,
        -0.9798240661621094
      ],
      "type": "VEC3"
    },
    {
      "bufferView": 1,
      "byteOffset": 37392,
      "componentType": 5126,
      "count": 1216,
      "max": [
        1.0277777910232544,
        1.0
      ],
      "min": [
        0.0,
        -1.1920928955078125e-07
      ],
      "type": "VEC2"
    },
    {
      "bufferView": 0,
      "byteOffset": 89592,
      "componentType": 5125,
      "count": 6228,
      "type": "SCALAR"
    },
    {
      "bufferView": 2,
      "byteOffset": 141360,
      "componentType": 5126,
      "count": 970,
      "max": [
        46.08355712890625,
        172.73504638671875,
        66.66110229492188
      ],
      "min": [
        -47.68048095703125,
        90.01361846923828,
        36.20684051513672
      ],
      "type": "VEC3"
    },
    {
      "bufferView": 2,
      "byteOffset": 153000,
      "componentType": 5126,
      "count": 970,
      "max": [
        0.999962329864502,
        1.0,
        1.0
      ],
      "min": [
        -0.999962329864502,
        -1.0,
        -1.0
      ],
      "type": "VEC3"
    },
    {
      "bufferView": 1,
      "byteOffset": 47120,
      "componentType": 5126,
      "count": 970,
      "max": [
        13.153282165527344,
        10.392332077026367
      ],
      "min": [
        -14.114962577819824,
        -8.965333938598633
      ],
      "type": "VEC2"
    },
    {
      "bufferView": 0,
      "byteOffset": 114504,
      "componentType": 5125,
      "count": 4728,
      "type": "SCALAR"
    },
    {
      "bufferView": 2,
      "byteOffset": 164640,
      "componentType": 5126,
      "count": 132,
      "max": [
        33.69557189941406,
        157.37139892578125,
        49.56229019165039
      ],
      "min": [
        -35.29249572753906,
        131.54055786132813,
        46.67093276977539
      ],
      "type": "VEC3"
    },
    {
      "bufferView": 2,
      "byteOffset": 166224,
      "componentType": 5126,
      "count": 132,
      "max": [
        0.5667024850845337,
        0.5112085938453674,
        0.9699313640594482
      ],
      "min": [
        -0.5667024850845337,
        -0.3768121600151062,
        0.8181788325309753
      ],
      "type": "VEC3"
    },
    {
      "bufferView": 1,
      "byteOffset": 54880,
      "componentType": 5126,
      "count": 132,
      "max": [
        1.000000238418579,
        0.8125
      ],
      "min": [
        0.0,
        0.75
      ],
      "type": "VEC2"
    },
    {
      "bufferView": 0,
      "byteOffset": 133416,
      "componentType": 5125,
      "count": 384,
      "type": "SCALAR"
    },
    {
      "bufferView": 2,
      "byteOffset": 167808,
      "componentType": 5126,
      "count": 2302,
      "max": [
        213.8179931640625,
        162.250244140625,
        48.67714309692383
      ],
      "min": [
        -210.8396453857422,
        25.055021286010742,
        -53.13846969604492
      ],
      "type": "VEC3"
    },
    {
      "bufferView": 2,
      "byteOffset": 195432,
      "componentType": 5126,
      "count": 2302,
      "max": [
        0.9996206164360046,
        0.9970875382423401,
        0.9999801516532898
      ],
      "min": [
        -0.9996206164360046,
        -0.9974114298820496,
        -0.9999802112579346
      ],
      "type": "VEC3"
    },
    {
      "bufferView": 1,
      "byteOffset": 55936,
      "componentType": 5126,
      "count": 2302,
      "max": [
        1.0277777910232544,
        1.0
      ],
      "min": [
        0.0,
        -1.1920928955078125e-07
      ],
      "type": "VEC2"
    },
    {
      "bufferView": 0,
      "byteOffset": 134952,
      "componentType": 5125,
      "count": 11112,
      "type": "SCALAR"
    },
    {
      "bufferView": 2,
      "byteOffset": 223056,
      "componentType": 5126,
      "count": 571,
      "max": [
        28.611888885498047,
        245.8548126220703,
        50.79239273071289
      ],
      "min": [
        -30.296741485595703,
        191.18319702148438,
        26.997941970825195
      ],
      "type": "VEC3"
    },
    {
      "bufferView": 2,
      "byteOffset": 229908,
      "componentType": 5126,
      "count": 571,
      "max": [
        0.9999775886535645,
        0.9998282194137573,
        0.9992029070854187
      ],
      "min": [
        -0.9999775886535645,
        -0.9781075119972229,
        -0.21855869889259338
      ],
      "type": "VEC3"
    },
    {
      "bufferView": 1,
      "byteOffset": 74352,
      "componentType": 5126,
      "count": 571,
      "max": [
        1.0,
        1.1579463481903076
      ],
      "min": [
        0.00047684088349342346,
        0.015076844953000546
      ],
      "type": "VEC2"
    },
    {
      "bufferView": 0,
      "byteOffset": 179400,
      "componentType": 5125,
      "count": 2880,
      "type": "SCALAR"
    },
    {
      "bufferView": 2,
      "byteOffset": 236760,
      "componentType": 5126,
      "count": 124,
      "max": [
        22.241592407226563,
        240.57730102539063,
        50.53823471069336
      ],
      "min": [
        -23.926448822021484,
        197.4997100830078,
        39.12748336791992
      ],
      "type": "VEC3"
    },
    {
      "bufferView": 2,
      "byteOffset": 238248,
      "componentType": 5126,
      "count": 124,
      "max": [
        0.0902760699391365,
        0.34567147493362427,
        0.9865564107894897
      ],
      "min": [
        -0.09027101844549179,
        0.16342127323150635,
        0.9383556246757507
      ],
      "type": "VEC3"
    },
    {
      "bufferView": 1,
      "byteOffset": 78920,
      "componentType": 5126,
      "count": 124,
      "max": [
        0.4845104217529297,
        0.8636923432350159
      ],
      "min": [
        0.1306970864534378,
        0.13630761206150055
      ],
      "type": "VEC2"
    },
    {
      "bufferView": 0,
      "byteOffset": 190920,
      "componentType": 5125,
      "count": 600,
      "type": "SCALAR"
    },
    {
      "bufferView": 2,
      "byteOffset": 239736,
      "componentType": 5126,
      "count": 682,
      "max": [
        62.54364776611328,
        207.3617706298828,
        49.19281005859375
      ],
      "min": [
        -64.23097229003906,
        82.99227142333984,
        -89.86211395263672
      ],
      "type": "VEC3"
    },
    {
      "bufferView": 2,
      "byteOffset": 247920,
      "componentType": 5126,
      "count": 682,
      "max": [
        0.9981414675712585,
        0.9999911189079285,
        0.9999381899833679
      ],
      "min": [
        -0.9981415271759033,
        -0.9999997615814209,
        -0.9831609129905701
      ],
      "type": "VEC3"
    },
    {
      "bufferView": 1,
      "byteOffset": 79912,
      "componentType": 5126,
      "count": 682,
      "max": [
        0.4987866282463074,
        0.8125
      ],
      "min": [
        0.001354446168988943,
        0.0025104335509240627
      ],
      "type": "VEC2"
    },
    {
      "bufferView": 0,
      "byteOffset": 193320,
      "componentType": 5125,
      "count": 3852,
      "type": "SCALAR"
    },
    {
      "bufferView": 2,
      "byteOffset": 256104,
      "componentType": 5126,
      "count": 848,
      "max": [
        62.98187255859375,
        -116.96549987792969,
        63.89611053466797
      ],
      "min": [
        -62.98187255859375,
        -164.43966674804688,
        -59.580718994140625
      ],
      "type": "VEC3"
    },
    {
      "bufferView": 2,
      "byteOffset": 266280,
      "componentType": 5126,
      "count": 848,
      "max": [
        0.9999976754188538,
        1.0,
        1.0
      ],
      "min": [
        -0.9999976754188538,
        -1.0,
        -1.0
      ],
      "type": "VEC3"
    },
    {
      "bufferView": 1,
      "byteOffset": 85368,
      "componentType": 5126,
      "count": 848,
      "max": [
        1.000000238418579,
        1.0087019205093384
      ],
      "min": [
        -1.1401532888412476,
        0.3125000596046448
      ],
      "type": "VEC2"
    },
    {
      "bufferView": 0,
      "byteOffset": 208728,
      "componentType": 5125,
      "count": 3324,
      "type": "SCALAR"
    }
  ],
  "asset": {
    "extras": {
      "author": "Anthony Yanez (https://sketchfab.com/paulyanez)",
      "license": "CC-BY-4.0 (http://creativecommons.org/licenses/by/4.0/)",
      "source": "https://sketchfab.com/3d-models/3d-super-mario-3015b9cd7494464ea8ed9967023a3d7a",
      "title": "3d Super Mario"
    },
    "generator": "Sketchfab-12.66.0",
    "version": "2.0"
  },
  "bufferViews": [
    {
      "buffer": 0,
      "byteLength": 222024,
      "name": "floatBufferViews",
      "target": 34963
    },
    {
      "buffer": 0,
      "byteLength": 92152,
      "byteOffset": 222024,
      "byteStride": 8,
      "name": "floatBufferViews",
      "target": 34962
    },
    {
      "buffer": 0,
      "byteLength": 276456,
      "byteOffset": 314176,
      "byteStride": 12,
      "name": "floatBufferViews",
      "target": 34962
    }
  ],
  "buffers": [
    {
      "byteLength": 590632,
      "uri": "scene.bin"
    }
  ],
  "images": [
    {
      "uri": "textures/21_-_Default_baseColor.png"
    }
  ],
  "materials": [
    {
      "doubleSided": true,
      "name": "09_-_Default",
      "pbrMetallicRoughness": {
        "baseColorFactor": [
          0.0,
          0.0196078,
          0.388235,
          1.0
        ],
        "metallicFactor": 0.0,
        "roughnessFactor": 0.8929713596
      }
    },
    {
      "doubleSided": true,
      "name": "13_-_Default",
      "pbrMetallicRoughness": {
        "baseColorFactor": [
          0.921569,
          0.921569,
          0.0,
          1.0
        ],
        "metallicFactor": 0.0,
        "roughnessFactor": 0.3397484756
      }
    },
    {
      "doubleSided": true,
      "name": "03_-_Default",
      "pbrMetallicRoughness": {
        "baseColorFactor": [
          0.921569,
          0.0,
          0.0,
          1.0
        ],
        "metallicFactor": 0.3858612805,
        "roughnessFactor": 0.8929713596
      }
    },
    {
      "doubleSided": true,
      "name": "07_-_Default",
      "pbrMetallicRoughness": {
        "baseColorFactor": [
          0.960784,
          0.54902,
          0.466667,
          1.0
        ],
        "metallicFactor": 0.0,
        "roughnessFactor": 0.8929713596
      }
    },
    {
      "doubleSided": true,
      "name": "08_-_Default",
      "pbrMetallicRoughness": {
        "baseColorFactor": [
          0.0,
          0.0,
          0.0,
          1.0
        ],
        "metallicFactor": 0.270007622,
        "roughnessFactor": 0.6385289634
      }
    },
    {
      "doubleSided": true,
      "name": "20_-_Default",
      "pbrMetallicRoughness": {
        "baseColorFactor": [
          0.00784314,
          0.760784,
          0.788235,
          1.0
        ],
        "metallicFactor": 0.0,
        "roughnessFactor": 0.8929713596
      }
    },
    {
      "doubleSided": true,
      "name": "15_-_Default",
      "pbrMetallicRoughness": {
        "metallicFactor": 0.0,
        "roughnessFactor": 0.8929713596
      }
    },
    {
      "doubleSided": true,
      "name": "03_-_Default_0",
      "pbrMetallicRoughness": {
        "metallicFactor": 0.4651295732,
        "roughnessFactor": 0.8929713596
      }
    },
    {
      "doubleSided": true,
      "name": "21_-_Default",
      "pbrMetallicRoughness": {
        "baseColorTexture": {
          "index": 0
        },
        "metallicFactor": 0.0,
        "roughnessFactor": 0.8929713596
      }
    },
    {
      "doubleSided": true,
      "name": "19_-_Default",
      "pbrMetallicRoughness": {
        "baseColorFactor": [
          0.145098,
          0.0235294,
          0.0,
          1.0
        ],
        "metallicFactor": 0.3065929878,
        "roughnessFactor": 0.5409679878
      }
    },
    {
      "doubleSided": true,
      "name": "14_-_Default",
      "pbrMetallicRoughness": {
        "baseColorFactor": [
          0.4,
          0.172549,
          0.0627451,
          1.0
        ],
        "metallicFactor": 0.2943978659,
        "roughnessFactor": 0.47999237800000005
      }
    }
  ],
  "meshes": [
    {
      "name": "Mario_09 - Default_0",
      "primitives": [
        {
          "attributes": {
            "NORMAL": 1,
            "POSITION": 0,
            "TEXCOORD_0": 2
          },
          "indices": 3,
          "material": 0,
          "mode": 4
        }
      ]
    },
    {
      "name": "Mario_13 - Default_0",
      "primitives": [
        {
          "attributes": {
            "NORMAL": 5,
            "POSITION": 4,
            "TEXCOORD_0": 6
          },
          "indices": 7,
          "material": 1,
          "mode": 4
        }
      ]
    },
    {
      "name": "Mario_03 - Default_0",
      "primitives": [
        {
          "attributes": {
            "NORMAL": 9,
            "POSITION": 8,
            "TEXCOORD_0": 10
          },
          "indices": 11,
          "material": 2,
          "mode": 4
        }
      ]
    },
    {
      "name": "Mario_07 - Default_0",
      "primitives": [
        {
          "attributes": {
            "NORMAL": 13,
            "POSITION": 12,
            "TEXCOORD_0": 14
          },
          "indices": 15,
          "material": 3,
          "mode": 4
        }
      ]
    },
    {
      "name": "Mario_08 - Default_0",
      "primitives": [
        {
          "attributes": {
            "NORMAL": 17,
            "POSITION": 16,
            "TEXCOORD_0": 18
          },
          "indices": 19,
          "material": 4,
          "mode": 4
        }
      ]
    },
    {
      "name": "Mario_20 - Default_0",
      "primitives": [
        {
          "attributes": {
            "NORMAL": 21,
            "POSITION": 20,
            "TEXCOORD_0": 22
          },
          "indices": 23,
          "material": 5,
          "mode": 4
        }
      ]
    },
    {
      "name": "Mario_15 - Default_0",
      "primitives": [
        {
          "attributes": {
            "NORMAL": 25,
            "POSITION": 24,
            "TEXCOORD_0": 26
          },
          "indices": 27,
          "material": 6,
          "mode": 4
        }
      ]
    },
    {
      "name": "Mario_03 - Default_0",
      "primitives": [
        {
          "attributes": {
            "NORMAL": 29,
            "POSITION": 28,
            "TEXCOORD_0": 30
          },
          "indices": 31,
          "material": 7,
          "mode": 4
        }
      ]
    },
    {
      "name": "Mario_21 - Default_0",
      "primitives": [
        {
          "attributes": {
            "NORMAL": 33,
            "POSITION": 32,
            "TEXCOORD_0": 34
          },
          "indices": 35,
          "material": 8,
          "mode": 4
        }
      ]
    },
    {
      "name": "Mario_19 - Default_0",
      "primitives": [
        {
          "attributes": {
            "NORMAL": 37,
            "POSITION": 36,
            "TEXCOORD_0": 38
          },
          "indices": 39,
          "material": 9,
          "mode": 4
        }
      ]
    },
    {
      "name": "Mario_14 - Default_0",
      "primitives": [
        {
          "attributes": {
            "NORMAL": 41,
            "POSITION": 40,
            "TEXCOORD_0": 42
          },
          "indices": 43,
          "material": 10,
          "mode": 4
        }
      ]
    }
  ],
  "nodes": [
    {
      "children": [
        1
      ],
      "matrix": [
        1.0,
        0.0,
        0.0,
        0.0,
        0.0,
        2.220446049250313e-16,
        -1.0,
        0.0,
        0.0,
        1.0,
        2.220446049250313e-16,
        0.0,
        0.0,
        0.0,
        0.0,
        1.0
      ],
      "name": "Sketchfab_model"
    },
    {
      "children": [
        2
      ],
      "matrix": [
        1.0,
        0.0,
        0.0,
        0.0,
        0.0,
        0.0,
        1.0,
        0.0,
        0.0,
        -1.0,
        0.0,
        0.0,
        0.0,
        0.0,
        0.0,
        1.0
      ],
      "name": "Mario.FBX"
    },
    {
      "children": [
        3
      ],
      "name": "RootNode"
    },
    {
      "children": [
        4,
        5,
        6,
        7,
        8,
        9,
        10,
        11,
        12,
        13,
        14
      ],
      "matrix": [
        1.0,
        0.0,
        0.0,
        0.0,
        0.0,
        0.9999999999999867,
        1.6292068494294582e-07,
        0.0,
        0.0,
        -1.6292068494294582e-07,
        0.9999999999999867,
        0.0,
        -7.172365188598633,
        -3.1480369567871094,
        4.488554000854492,
        1.0
      ],
      "name": "Mario"
    },
    {
      "mesh": 0,
      "name": "Mario_09 - Default_0"
    },
    {
      "mesh": 1,
      "name": "Mario_13 - Default_0"
    },
    {
      "mesh": 2,
      "name": "Mario_03 - Default_0"
    },
    {
      "mesh": 3,
      "name": "Mario_07 - Default_0"
    },
    {
      "mesh": 4,
      "name": "Mario_08 - Default_0"
    },
    {
      "mesh": 5,
      "name": "Mario_20 - Default_0"
    },
    {
      "mesh": 6,
      "name": "Mario_15 - Default_0"
    },
    {
      "mesh": 7,
      "name": "Mario_03 - Default_0"
    },
    {
      "mesh": 8,
      "name": "Mario_21 - Default_0"
    },
    {
      "mesh": 9,
      "name": "Mario_19 - Default_0"
    },
    {
      "mesh": 10,
      "name": "Mario_14 - Default_0"
    }
  ],
  "samplers": [
    {
      "magFilter": 9729,
      "minFilter": 9987,
      "wrapS": 10497,
      "wrapT": 10497
    }
  ],
  "scene": 0,
  "scenes": [
    {
      "name": "Sketchfab_Scene",
      "nodes": [
        0
      ]
    }
  ],
  "textures": [
    {
      "sampler": 0,
      "source": 0
    }
  ]
}
