{
  "accessors": [
    {
      "bufferView": 2,
      "componentType": 5126,
      "count": 3813,
      "max": [
        1.254699945449829,
        1.254699945449829,
        8.901689529418945
      ],
      "min": [
        -1.254699945449829,
        -1.3403500318527222,
        0.0
      ],
      "type": "VEC3"
    },
    {
      "bufferView": 2,
      "byteOffset": 45756,
      "componentType": 5126,
      "count": 3813,
      "max": [
        0.9999997019767761,
        0.9999980330467224,
        1.0
      ],
      "min": [
        -0.9999997019767761,
        -0.9999980330467224,
        -1.0
      ],
      "type": "VEC3"
    },
    {
      "bufferView": 3,
      "componentType": 5126,
      "count": 3813,
      "max": [
        0.9999947547912598,
        0.9999837279319763,
        0.9999997019767761,
        1.0
      ],
      "min": [
        -0.9999947547912598,
        -0.9999837279319763,
        -1.0,
        -1.0
      ],
      "type": "VEC4"
    },
    {
      "bufferView": 1,
      "componentType": 5126,
      "count": 3813,
      "max": [
        0.9905499815940857,
        0.9987900257110596
      ],
      "min": [
        0.016939999535679817,
        0.007960000075399876
      ],
      "type": "VEC2"
    },
    {
      "bufferView": 1,
      "byteOffset": 30504,
      "componentType": 5126,
      "count": 3813,
      "max": [
        0.9905499815940857,
        0.9987900257110596
      ],
      "min": [
        0.016939999535679817,
        0.007960000075399876
      ],
      "type": "VEC2"
    },
    {
      "bufferView": 1,
      "byteOffset": 61008,
      "componentType": 5126,
      "count": 3813,
      "max": [
        0.9905499815940857,
        0.9987900257110596
      ],
      "min": [
        0.016939999535679817,
        0.007960000075399876
      ],
      "type": "VEC2"
    },
    {
      "bufferView": 0,
      "componentType": 5125,
      "count": 9297,
      "type": "SCALAR"
    }
  ],
  "asset": {
    "extras": {
      "author": "3DHaupt (https://sketchfab.com/dennish2010)",
      "license": "CC-BY-NC-ND-4.0 (http://creativecommons.org/licenses/by-nc-nd/4.0/)",
      "source": "https://sketchfab.com/3d-models/kickelhahn-tower-weyeuTkdMADFF53EZq4U38mmx3P",
      "title": "Kickelhahn Tower"
    },
    "generator": "Sketchfab-12.63.0",
    "version": "2.0"
  },
  "bufferViews": [
    {
      "buffer": 0,
      "byteLength": 37188,
      "name": "floatBufferViews",
      "target": 34963
    },
    {
      "buffer": 0,
      "byteLength": 91512,
      "byteOffset": 37188,
      "byteStride": 8,
      "name": "floatBufferViews",
      "target": 34962
    },
    {
      "buffer": 0,
      "byteLength": 91512,
      "byteOffset": 128700,
      "byteStride": 12,
      "name": "floatBufferViews",
      "target": 34962
    },
    {
      "buffer": 0,
      "byteLength": 61008,
      "byteOffset": 220212,
      "byteStride": 16,
      "name": "floatBufferViews",
      "target": 34962
    }
  ],
  "buffers": [
    {
      "byteLength": 281220,
      "uri": "scene.bin"
    }
  ],
  "images": [
    {
      "uri": "textures/Material.000_baseColor.jpeg"
    },
    {
      "uri": "textures/Material.000_normal.png"
    }
  ],
  "materials": [
    {
      "doubleSided": true,
      "name": "Material.000",
      "normalTexture": {
        "index": 1
      },
      "pbrMetallicRoughness": {
        "baseColorTexture": {
          "index": 0
        },
        "metallicFactor": 0.0,
        "roughnessFactor": 0.7564989966
      }
    }
  ],
  "meshes": [
    {
      "name": "KH_TowerHigh.003_0",
      "primitives": [
        {
          "attributes": {
            "NORMAL": 1,
            "POSITION": 0,
            "TANGENT": 2,
            "TEXCOORD_0": 3,
            "TEXCOORD_1": 4,
            "TEXCOORD_2": 5
          },
          "indices": 6,
          "material": 0,
          "mode": 4
        }
      ]
    }
  ],
  "nodes": [
    {
      "children": [
        1
      ],
      "matrix": [
        1.0,
        0.0,
        0.0,
        0.0,
        0.0,
        2.220446049250313e-16,
        -1.0,
        0.0,
        0.0,
        1.0,
        2.220446049250313e-16,
        0.0,
        0.0,
        0.0,
        0.0,
        1.0
      ],
      "name": "Sketchfab_model"
    },
    {
      "children": [
        2
      ],
      "name": "Root"
    },
    {
      "children": [
        3
      ],
      "matrix": [
        2.5024399999999996,
        -1.28264,
        0.0,
        0.0,
        1.28264,
        2.5024399999999996,
        0.0,
        0.0,
        0.0,
        0.0,
        2.7,
        0.0,
        0.96941,
        0.0,
        1.11602,
        1.0
      ],
      "name": "KH_TowerHigh.003"
    },
    {
      "mesh": 0,
      "name": "KH_TowerHigh.003_0"
    }
  ],
  "samplers": [
    {
      "magFilter": 9729,
      "minFilter": 9987,
      "wrapS": 10497,
      "wrapT": 10497
    }
  ],
  "scene": 0,
  "scenes": [
    {
      "name": "Sketchfab_Scene",
      "nodes": [
        0
      ]
    }
  ],
  "textures": [
    {
      "sampler": 0,
      "source": 0
    },
    {
      "sampler": 0,
      "source": 1
    }
  ]
}
